<?xml version="1.0" encoding="UTF-8" standalone="no"?>
<!DOCTYPE svg PUBLIC "-//W3C//DTD SVG 1.1//EN" "http://www.w3.org/Graphics/SVG/1.1/DTD/svg11.dtd">
<svg width="100%" height="100%" viewBox="0 0 224 224" version="1.1" xmlns="http://www.w3.org/2000/svg" xmlns:xlink="http://www.w3.org/1999/xlink" xml:space="preserve" xmlns:serif="http://www.serif.com/" style="fill-rule:evenodd;clip-rule:evenodd;stroke-linejoin:round;stroke-miterlimit:2;">
    <g id="Artboard1" transform="matrix(1,0,0,1,-138.101949,-138.101949)">
        <rect x="138.102" y="138.102" width="223.796" height="223.796" style="fill:none;"/>
        <g transform="matrix(1.604728,0,0,1.604728,98.619634,75.236616)">
            <circle cx="94.334" cy="108.905" r="65.813" style="fill:white;"/>
        </g>
        <g transform="matrix(3.924191,0,0,0.64769,-1213.289637,129.512568)">
            <g transform="matrix(1.535489,0,0,1.535489,-172.284447,-34.939581)">
                <g transform="matrix(1,0,0,1,-0.797427,0)">
                    <g transform="matrix(0.988989,0.297189,0.049051,5.6225,-77.822734,-3104.312526)">
                        <path d="M413.924,546.986L416.989,548.689L407.918,565.009L404.854,563.306L413.924,546.986Z"/>
                    </g>
                    <g transform="matrix(0.821825,0,0,4.979229,-96.347635,-405.395297)">
                        <path d="M550.195,122.535C548.372,122.535 546.675,122.069 545.105,121.138C543.534,120.206 542.274,118.982 541.323,117.466C540.373,115.95 539.898,114.314 539.898,112.56L539.898,107.977C539.898,106.219 540.362,104.589 541.288,103.087C542.215,101.586 543.466,100.379 545.041,99.469C546.617,98.558 548.339,98.102 550.207,98.102C552.069,98.102 553.786,98.55 555.357,99.447C556.928,100.342 558.189,101.531 559.139,103.012C560.09,104.494 560.565,106.148 560.565,107.977L560.565,112.56C560.565,114.273 560.089,115.896 559.136,117.426C558.183,118.957 556.92,120.191 555.346,121.129C553.773,122.066 552.055,122.535 550.195,122.535ZM550.196,118.51C551.29,118.51 552.277,118.237 553.159,117.691C554.041,117.145 554.751,116.431 555.288,115.547C555.825,114.662 556.094,113.73 556.094,112.75L556.094,107.778C556.094,106.819 555.83,105.911 555.301,105.056C554.773,104.2 554.065,103.498 553.177,102.95C552.29,102.401 551.3,102.127 550.208,102.127C549.116,102.127 548.131,102.4 547.252,102.946C546.374,103.491 545.674,104.192 545.152,105.05C544.631,105.907 544.37,106.816 544.37,107.778L544.37,112.75C544.37,113.73 544.63,114.662 545.149,115.547C545.67,116.431 546.374,117.145 547.263,117.691C548.152,118.237 549.129,118.51 550.196,118.51Z" style="fill-rule:nonzero;"/>
                    </g>
                </g>
            </g>
        </g>
    </g>
</svg>
