<?xml version="1.0" encoding="UTF-8" standalone="no"?>
<!DOCTYPE svg PUBLIC "-//W3C//DTD SVG 1.1//EN" "http://www.w3.org/Graphics/SVG/1.1/DTD/svg11.dtd">
<svg width="100%" height="100%" viewBox="0 0 115 41" version="1.1" xmlns="http://www.w3.org/2000/svg" xmlns:xlink="http://www.w3.org/1999/xlink" xml:space="preserve" xmlns:serif="http://www.serif.com/" style="fill-rule:evenodd;clip-rule:evenodd;stroke-linecap:square;stroke-linejoin:round;stroke-miterlimit:1.5;">
    <g transform="matrix(1,0,0,1,-384.537792,-542.962497)">
        <g transform="matrix(0.975023,0,0,1,6.818765,256.568435)">
            <g transform="matrix(1.009216,0,0,0.162411,54.449282,281.913267)">
                <g transform="matrix(1.535489,0,0,1.535489,-172.284447,-34.939581)">
                    <g transform="matrix(1,0,0,1,-0.797427,0)">
                        <g transform="matrix(0.988989,0.297189,0.049051,5.6225,-78.115725,-3106.336921)">
                            <path d="M414.603,550.053L407.817,562.264" style="fill:none;stroke:black;stroke-width:4.2px;"/>
                        </g>
                        <g transform="matrix(0.821825,0,0,4.979229,-96.347635,-405.395297)">
                            <path d="M550.195,122.535C548.372,122.535 546.675,122.069 545.105,121.138C543.534,120.206 542.274,118.982 541.323,117.466C540.373,115.95 539.898,114.314 539.898,112.56L539.898,107.977C539.898,106.219 540.362,104.589 541.288,103.087C542.215,101.586 543.466,100.379 545.041,99.469C546.617,98.558 548.339,98.102 550.207,98.102C552.069,98.102 553.786,98.55 555.357,99.447C556.928,100.342 558.189,101.531 559.139,103.012C560.09,104.494 560.565,106.148 560.565,107.977L560.565,112.56C560.565,114.273 560.089,115.896 559.136,117.426C558.183,118.957 556.92,120.191 555.346,121.129C553.773,122.066 552.055,122.535 550.195,122.535ZM550.201,117.869C551.149,117.869 552.006,117.617 552.77,117.114C553.535,116.611 554.151,115.952 554.616,115.137C555.083,114.322 555.316,113.463 555.316,112.56L555.316,107.977C555.316,107.093 555.086,106.256 554.628,105.468C554.17,104.679 553.556,104.032 552.786,103.527C552.017,103.021 551.158,102.769 550.211,102.769C549.264,102.769 548.41,103.02 547.648,103.523C546.886,104.026 546.279,104.672 545.827,105.462C545.374,106.252 545.148,107.091 545.148,107.977L545.148,112.56C545.148,113.463 545.374,114.322 545.824,115.137C546.275,115.952 546.886,116.611 547.657,117.114C548.428,117.617 549.276,117.869 550.201,117.869Z" style="fill-rule:nonzero;"/>
                        </g>
                    </g>
                    <g transform="matrix(0.821825,0,0,4.979229,-96.347635,-405.395297)">
                        <path d="M517.798,122.119C517.04,122.119 516.417,121.935 515.93,121.567C515.442,121.199 515.198,120.791 515.198,120.344L515.198,100.127C515.198,99.607 515.442,99.19 515.93,98.875C516.417,98.56 517.04,98.402 517.798,98.402C518.454,98.402 519.011,98.56 519.47,98.875C519.928,99.19 520.157,99.607 520.157,100.127L520.157,101.902C520.665,100.935 521.492,100.06 522.638,99.277C523.784,98.494 525.19,98.102 526.857,98.102C528.432,98.102 529.878,98.549 531.196,99.444C532.514,100.338 533.572,101.528 534.369,103.015C535.166,104.501 535.565,106.155 535.565,107.977L535.565,120.344C535.565,120.935 535.289,121.379 534.736,121.675C534.183,121.971 533.577,122.119 532.916,122.119C532.307,122.119 531.722,121.971 531.159,121.675C530.597,121.379 530.316,120.935 530.316,120.344L530.316,107.977C530.316,107.094 530.088,106.258 529.632,105.469C529.176,104.679 528.566,104.032 527.801,103.527C527.036,103.021 526.188,102.769 525.257,102.769C524.474,102.769 523.713,102.978 522.973,103.396C522.234,103.814 521.629,104.405 521.156,105.171C520.684,105.936 520.448,106.871 520.448,107.977L520.448,120.344C520.448,120.791 520.19,121.199 519.673,121.567C519.157,121.935 518.532,122.119 517.798,122.119Z" style="fill-rule:nonzero;"/>
                        <g transform="matrix(1,0,0,1,-1.270312,0)">
                            <path d="M573.011,122.535C571.464,122.535 570.017,122.066 568.67,121.129C567.322,120.191 566.245,118.959 565.438,117.433C564.632,115.907 564.228,114.282 564.228,112.56L564.228,107.977C564.228,106.155 564.632,104.501 565.438,103.015C566.245,101.528 567.322,100.338 568.67,99.444C570.017,98.549 571.507,98.102 573.141,98.102C574.729,98.102 576.076,98.494 577.18,99.277C578.284,100.06 579.103,100.935 579.636,101.902L579.636,91.321C579.636,90.801 579.898,90.383 580.421,90.068C580.945,89.753 581.577,89.596 582.316,89.596C583.068,89.596 583.685,89.753 584.165,90.068C584.646,90.383 584.886,90.801 584.886,91.321L584.886,120.344C584.886,120.791 584.646,121.199 584.165,121.567C583.685,121.935 583.068,122.119 582.316,122.119C581.674,122.119 581.116,121.935 580.641,121.567C580.166,121.199 579.928,120.791 579.928,120.344L579.928,118.619C579.414,119.652 578.526,120.563 577.263,121.352C576.001,122.141 574.583,122.535 573.011,122.535ZM574.516,117.869C575.499,117.869 576.371,117.605 577.132,117.077C577.893,116.55 578.501,115.954 578.955,115.292C579.409,114.629 579.636,114.102 579.636,113.71L579.636,107.977C579.636,106.871 579.385,105.936 578.884,105.171C578.383,104.405 577.743,103.814 576.965,103.396C576.187,102.978 575.388,102.769 574.566,102.769C573.635,102.769 572.782,103.021 572.007,103.527C571.232,104.032 570.617,104.679 570.161,105.469C569.705,106.258 569.477,107.094 569.477,107.977L569.477,112.56C569.477,113.443 569.705,114.296 570.161,115.119C570.617,115.941 571.227,116.605 571.992,117.111C572.758,117.616 573.599,117.869 574.516,117.869Z" style="fill-rule:nonzero;"/>
                        </g>
                        <g transform="matrix(1,0,0,1,-2.540625,0)">
                            <path d="M601.107,122.535C598.849,122.535 596.849,122.118 595.109,121.283C593.368,120.448 592.002,119.283 591.009,117.787C590.016,116.291 589.52,114.549 589.52,112.56L589.52,107.827C589.52,106.071 589.991,104.455 590.934,102.979C591.877,101.503 593.135,100.321 594.709,99.433C596.283,98.546 598.025,98.102 599.936,98.102C601.717,98.102 603.36,98.499 604.865,99.292C606.371,100.085 607.585,101.176 608.509,102.565C609.433,103.953 609.895,105.563 609.895,107.394C609.895,108.769 609.67,109.757 609.221,110.358C608.773,110.959 608.201,111.328 607.507,111.465C606.813,111.601 606.089,111.669 605.336,111.669L594.77,111.669L594.77,112.822C594.77,114.486 595.375,115.812 596.586,116.798C597.797,117.784 599.357,118.277 601.266,118.277C602.452,118.277 603.411,118.112 604.145,117.782C604.878,117.451 605.49,117.129 605.98,116.815C606.47,116.501 606.934,116.344 607.37,116.344C607.789,116.344 608.153,116.481 608.461,116.756C608.769,117.031 609.004,117.352 609.165,117.719C609.326,118.085 609.407,118.413 609.407,118.702C609.407,119.196 609.069,119.745 608.392,120.348C607.716,120.951 606.759,121.466 605.522,121.894C604.284,122.321 602.813,122.535 601.107,122.535ZM594.77,108.402L603.073,108.402C603.802,108.402 604.294,108.305 604.551,108.111C604.808,107.916 604.936,107.523 604.936,106.931C604.936,106.042 604.712,105.23 604.265,104.496C603.818,103.761 603.212,103.178 602.446,102.746C601.681,102.314 600.815,102.097 599.848,102.097C598.943,102.097 598.104,102.3 597.332,102.704C596.56,103.108 595.939,103.664 595.471,104.371C595.003,105.078 594.77,105.889 594.77,106.806L594.77,108.402Z" style="fill-rule:nonzero;"/>
                        </g>
                    </g>
                </g>
            </g>
        </g>
    </g>
</svg>
