<?xml version="1.0" encoding="UTF-8" standalone="no"?>
<!DOCTYPE svg PUBLIC "-//W3C//DTD SVG 1.1//EN" "http://www.w3.org/Graphics/SVG/1.1/DTD/svg11.dtd">
<svg width="100%" height="100%" viewBox="0 0 115 82" version="1.1" xmlns="http://www.w3.org/2000/svg" xmlns:xlink="http://www.w3.org/1999/xlink" xml:space="preserve" xmlns:serif="http://www.serif.com/" style="fill-rule:evenodd;clip-rule:evenodd;stroke-linejoin:round;stroke-miterlimit:2;">
    <g transform="matrix(1,0,0,1,-384.710266,-521.916828)">
        <g transform="matrix(0.975023,0,0,1,6.818765,256.568435)">
            <g transform="matrix(1.163892,0,0,1.163892,-73.108228,-64.077755)">
                <g transform="matrix(1.164438,0,0,0.187391,11.655882,277.868536)">
                    <g transform="matrix(1.535489,0,0,1.535489,-172.284447,-34.939581)">
                        <g transform="matrix(1,0,0,1,-0.797427,2.073382)">
                            <g transform="matrix(0.988989,0.297189,0.049051,5.6225,-78.115725,-3106.336921)">
                                <path d="M413.924,546.986L417.566,549.01L408.496,565.33L404.854,563.306L413.924,546.986Z"/>
                            </g>
                            <g transform="matrix(0.821825,0,0,4.979229,-96.347635,-405.395297)">
                                <path d="M550.195,122.535C548.372,122.535 546.675,122.069 545.105,121.138C543.534,120.206 542.274,118.982 541.323,117.466C540.373,115.95 539.898,114.314 539.898,112.56L539.898,107.977C539.898,106.219 540.362,104.589 541.288,103.087C542.215,101.586 543.466,100.379 545.041,99.469C546.617,98.558 548.339,98.102 550.207,98.102C552.069,98.102 553.786,98.55 555.357,99.447C556.928,100.342 558.189,101.531 559.139,103.012C560.09,104.494 560.565,106.148 560.565,107.977L560.565,112.56C560.565,114.273 560.089,115.896 559.136,117.426C558.183,118.957 556.92,120.191 555.346,121.129C553.773,122.066 552.055,122.535 550.195,122.535ZM550.201,117.869C551.149,117.869 552.006,117.617 552.77,117.114C553.535,116.611 554.151,115.952 554.616,115.137C555.083,114.322 555.316,113.463 555.316,112.56L555.316,107.977C555.316,107.093 555.086,106.256 554.628,105.468C554.17,104.679 553.556,104.032 552.786,103.527C552.017,103.021 551.158,102.769 550.211,102.769C549.264,102.769 548.41,103.02 547.648,103.523C546.886,104.026 546.279,104.672 545.827,105.462C545.374,106.252 545.148,107.091 545.148,107.977L545.148,112.56C545.148,113.463 545.374,114.322 545.824,115.137C546.275,115.952 546.886,116.611 547.657,117.114C548.428,117.617 549.276,117.869 550.201,117.869Z" style="fill-rule:nonzero;"/>
                            </g>
                        </g>
                        <g transform="matrix(0.821825,0,0,4.979229,-96.347635,-405.395297)">
                            <g transform="matrix(1,0,0,1,0,0.416406)">
                                <path d="M517.798,122.119C517.04,122.119 516.417,121.935 515.93,121.567C515.442,121.199 515.198,120.791 515.198,120.344L515.198,100.127C515.198,99.607 515.442,99.19 515.93,98.875C516.417,98.56 517.04,98.402 517.798,98.402C518.454,98.402 519.011,98.56 519.47,98.875C519.928,99.19 520.157,99.607 520.157,100.127L520.157,101.902C520.665,100.935 521.492,100.06 522.638,99.277C523.784,98.494 525.19,98.102 526.857,98.102C528.432,98.102 529.878,98.549 531.196,99.444C532.514,100.338 533.572,101.528 534.369,103.015C535.166,104.501 535.565,106.155 535.565,107.977L535.565,120.344C535.565,120.935 535.289,121.379 534.736,121.675C534.183,121.971 533.577,122.119 532.916,122.119C532.307,122.119 531.722,121.971 531.159,121.675C530.597,121.379 530.316,120.935 530.316,120.344L530.316,107.977C530.316,107.094 530.088,106.258 529.632,105.469C529.176,104.679 528.566,104.032 527.801,103.527C527.036,103.021 526.188,102.769 525.257,102.769C524.474,102.769 523.713,102.978 522.973,103.396C522.234,103.814 521.629,104.405 521.156,105.171C520.684,105.936 520.448,106.871 520.448,107.977L520.448,120.344C520.448,120.791 520.19,121.199 519.673,121.567C519.157,121.935 518.532,122.119 517.798,122.119Z" style="fill-rule:nonzero;"/>
                            </g>
                            <g transform="matrix(1,0,0,1,-1.270312,0)">
                                <path d="M573.011,122.535C571.464,122.535 570.017,122.066 568.67,121.129C567.322,120.191 566.245,118.959 565.438,117.433C564.632,115.907 564.228,114.282 564.228,112.56L564.228,107.977C564.228,106.155 564.632,104.501 565.438,103.015C566.245,101.528 567.322,100.338 568.67,99.444C570.017,98.549 571.507,98.102 573.141,98.102C574.729,98.102 576.076,98.494 577.18,99.277C578.284,100.06 579.103,100.935 579.636,101.902L579.636,91.321C579.636,90.801 579.898,90.383 580.421,90.068C580.945,89.753 581.577,89.596 582.316,89.596C583.068,89.596 583.685,89.753 584.165,90.068C584.646,90.383 584.886,90.801 584.886,91.321L584.886,120.344C584.886,120.791 584.646,121.199 584.165,121.567C583.685,121.935 583.068,122.119 582.316,122.119C581.674,122.119 581.116,121.935 580.641,121.567C580.166,121.199 579.928,120.791 579.928,120.344L579.928,118.619C579.414,119.652 578.526,120.563 577.263,121.352C576.001,122.141 574.583,122.535 573.011,122.535ZM574.516,117.869C575.499,117.869 576.371,117.605 577.132,117.077C577.893,116.55 578.501,115.954 578.955,115.292C579.409,114.629 579.636,114.102 579.636,113.71L579.636,107.977C579.636,106.871 579.385,105.936 578.884,105.171C578.383,104.405 577.743,103.814 576.965,103.396C576.187,102.978 575.388,102.769 574.566,102.769C573.635,102.769 572.782,103.021 572.007,103.527C571.232,104.032 570.617,104.679 570.161,105.469C569.705,106.258 569.477,107.094 569.477,107.977L569.477,112.56C569.477,113.443 569.705,114.296 570.161,115.119C570.617,115.941 571.227,116.605 571.992,117.111C572.758,117.616 573.599,117.869 574.516,117.869Z" style="fill-rule:nonzero;"/>
                            </g>
                        </g>
                    </g>
                </g>
                <g transform="matrix(1.005512,0,0,1.005512,12.493231,-7.902126)">
                    <g transform="matrix(0.379694,0,0,0.37021,94.802419,310.224334)">
                        <g transform="matrix(45.019506,0,0,45.019506,751.613517,122.118518)">
                            <path d="M0.117,-0C0.103,-0 0.09,-0.003 0.078,-0.01C0.066,-0.017 0.06,-0.028 0.06,-0.042L0.06,-0.691C0.06,-0.705 0.067,-0.715 0.081,-0.722C0.094,-0.728 0.109,-0.731 0.125,-0.731C0.141,-0.731 0.156,-0.728 0.17,-0.722C0.183,-0.715 0.19,-0.705 0.19,-0.691L0.19,-0.114L0.435,-0.114C0.448,-0.114 0.458,-0.108 0.464,-0.097C0.47,-0.085 0.473,-0.072 0.473,-0.057C0.473,-0.043 0.47,-0.03 0.464,-0.018C0.458,-0.006 0.448,-0 0.435,-0L0.117,-0Z" style="fill-rule:nonzero;"/>
                        </g>
                        <g transform="matrix(45.019506,0,0,45.019506,770.206572,122.118518)">
                            <path d="M0.075,-0.564C0.061,-0.564 0.052,-0.567 0.046,-0.574C0.04,-0.581 0.037,-0.589 0.037,-0.597L0.027,-0.735C0.027,-0.745 0.032,-0.753 0.042,-0.759C0.052,-0.765 0.063,-0.768 0.075,-0.768C0.087,-0.768 0.098,-0.765 0.108,-0.759C0.118,-0.753 0.123,-0.745 0.123,-0.735L0.113,-0.597C0.113,-0.589 0.11,-0.581 0.104,-0.574C0.098,-0.567 0.089,-0.564 0.075,-0.564Z" style="fill-rule:nonzero;"/>
                        </g>
                        <g transform="matrix(45.019506,0,0,45.019506,776.374245,122.118518)">
                            <path d="M0.152,0.009C0.117,0.009 0.086,-0.002 0.06,-0.023C0.035,-0.045 0.022,-0.078 0.022,-0.124C0.022,-0.162 0.032,-0.192 0.052,-0.213C0.072,-0.235 0.099,-0.25 0.134,-0.258C0.169,-0.266 0.209,-0.271 0.255,-0.271L0.296,-0.271L0.296,-0.284C0.296,-0.299 0.293,-0.313 0.288,-0.327C0.282,-0.341 0.273,-0.353 0.26,-0.362C0.248,-0.372 0.231,-0.376 0.208,-0.376C0.183,-0.376 0.163,-0.374 0.149,-0.369C0.136,-0.364 0.125,-0.358 0.118,-0.353C0.11,-0.347 0.102,-0.345 0.094,-0.345C0.08,-0.345 0.069,-0.352 0.061,-0.366C0.054,-0.38 0.05,-0.395 0.05,-0.409C0.05,-0.423 0.058,-0.436 0.075,-0.446C0.092,-0.457 0.113,-0.466 0.138,-0.472C0.163,-0.478 0.187,-0.481 0.21,-0.481C0.262,-0.481 0.304,-0.472 0.335,-0.453C0.366,-0.435 0.389,-0.411 0.403,-0.381C0.418,-0.352 0.425,-0.32 0.425,-0.286L0.425,-0.042C0.425,-0.03 0.419,-0.02 0.407,-0.012C0.395,-0.004 0.38,-0 0.362,-0C0.345,-0 0.332,-0.004 0.32,-0.012C0.309,-0.02 0.304,-0.03 0.304,-0.042L0.304,-0.07C0.286,-0.05 0.265,-0.031 0.241,-0.015C0.217,0.001 0.187,0.009 0.152,0.009ZM0.204,-0.087C0.218,-0.087 0.232,-0.092 0.246,-0.101C0.26,-0.11 0.272,-0.122 0.281,-0.137C0.291,-0.151 0.296,-0.167 0.296,-0.183L0.296,-0.204L0.281,-0.204C0.259,-0.204 0.238,-0.203 0.218,-0.2C0.198,-0.197 0.182,-0.192 0.17,-0.183C0.158,-0.174 0.151,-0.16 0.151,-0.141C0.151,-0.122 0.157,-0.109 0.167,-0.1C0.177,-0.091 0.189,-0.087 0.204,-0.087Z" style="fill-rule:nonzero;"/>
                        </g>
                        <g transform="matrix(45.019506,0,0,45.019506,797.578432,122.118518)">
                            <path d="M0.114,0.221C0.096,0.221 0.081,0.217 0.069,0.208C0.057,0.2 0.051,0.19 0.051,0.18L0.051,-0.435C0.051,-0.447 0.057,-0.457 0.069,-0.464C0.081,-0.471 0.095,-0.475 0.113,-0.475C0.13,-0.475 0.144,-0.471 0.155,-0.464C0.167,-0.457 0.172,-0.447 0.172,-0.435L0.172,-0.405C0.183,-0.424 0.201,-0.442 0.224,-0.458C0.248,-0.473 0.275,-0.481 0.307,-0.481C0.341,-0.481 0.371,-0.472 0.398,-0.454C0.425,-0.435 0.447,-0.411 0.462,-0.38C0.478,-0.349 0.486,-0.315 0.486,-0.278L0.486,-0.196C0.486,-0.161 0.478,-0.127 0.462,-0.096C0.446,-0.065 0.425,-0.039 0.398,-0.02C0.372,-0.001 0.343,0.009 0.311,0.009C0.282,0.009 0.255,0.001 0.231,-0.015C0.207,-0.031 0.19,-0.049 0.18,-0.07L0.18,0.18C0.18,0.19 0.174,0.2 0.161,0.208C0.148,0.217 0.133,0.221 0.114,0.221ZM0.269,-0.104C0.285,-0.104 0.299,-0.109 0.312,-0.117C0.326,-0.126 0.336,-0.138 0.345,-0.152C0.353,-0.166 0.357,-0.181 0.357,-0.196L0.357,-0.278C0.357,-0.293 0.353,-0.307 0.345,-0.321C0.337,-0.335 0.326,-0.346 0.312,-0.355C0.299,-0.363 0.283,-0.368 0.267,-0.368C0.253,-0.368 0.239,-0.364 0.226,-0.357C0.212,-0.35 0.202,-0.339 0.193,-0.326C0.184,-0.313 0.18,-0.297 0.18,-0.278L0.18,-0.178C0.18,-0.172 0.184,-0.162 0.191,-0.15C0.199,-0.139 0.209,-0.128 0.223,-0.118C0.236,-0.109 0.252,-0.104 0.269,-0.104Z" style="fill-rule:nonzero;"/>
                        </g>
                        <g transform="matrix(45.019506,0,0,45.019506,820.943555,122.118518)">
                            <path d="M0.114,0.221C0.096,0.221 0.081,0.217 0.069,0.208C0.057,0.2 0.051,0.19 0.051,0.18L0.051,-0.435C0.051,-0.447 0.057,-0.457 0.069,-0.464C0.081,-0.471 0.095,-0.475 0.113,-0.475C0.13,-0.475 0.144,-0.471 0.155,-0.464C0.167,-0.457 0.172,-0.447 0.172,-0.435L0.172,-0.405C0.183,-0.424 0.201,-0.442 0.224,-0.458C0.248,-0.473 0.275,-0.481 0.307,-0.481C0.341,-0.481 0.371,-0.472 0.398,-0.454C0.425,-0.435 0.447,-0.411 0.462,-0.38C0.478,-0.349 0.486,-0.315 0.486,-0.278L0.486,-0.196C0.486,-0.161 0.478,-0.127 0.462,-0.096C0.446,-0.065 0.425,-0.039 0.398,-0.02C0.372,-0.001 0.343,0.009 0.311,0.009C0.282,0.009 0.255,0.001 0.231,-0.015C0.207,-0.031 0.19,-0.049 0.18,-0.07L0.18,0.18C0.18,0.19 0.174,0.2 0.161,0.208C0.148,0.217 0.133,0.221 0.114,0.221ZM0.269,-0.104C0.285,-0.104 0.299,-0.109 0.312,-0.117C0.326,-0.126 0.336,-0.138 0.345,-0.152C0.353,-0.166 0.357,-0.181 0.357,-0.196L0.357,-0.278C0.357,-0.293 0.353,-0.307 0.345,-0.321C0.337,-0.335 0.326,-0.346 0.312,-0.355C0.299,-0.363 0.283,-0.368 0.267,-0.368C0.253,-0.368 0.239,-0.364 0.226,-0.357C0.212,-0.35 0.202,-0.339 0.193,-0.326C0.184,-0.313 0.18,-0.297 0.18,-0.278L0.18,-0.178C0.18,-0.172 0.184,-0.162 0.191,-0.15C0.199,-0.139 0.209,-0.128 0.223,-0.118C0.236,-0.109 0.252,-0.104 0.269,-0.104Z" style="fill-rule:nonzero;"/>
                        </g>
                        <g transform="matrix(45.019506,0,0,45.019506,844.308679,122.118518)">
                        </g>
                        <g transform="matrix(45.019506,0,0,45.019506,853.31258,122.118518)">
                            <path d="M0.208,0.009C0.177,0.009 0.148,-0.001 0.121,-0.02C0.094,-0.039 0.073,-0.065 0.057,-0.096C0.041,-0.127 0.033,-0.161 0.033,-0.196L0.033,-0.278C0.033,-0.315 0.041,-0.349 0.057,-0.38C0.073,-0.411 0.094,-0.435 0.121,-0.454C0.148,-0.472 0.178,-0.481 0.21,-0.481C0.242,-0.481 0.268,-0.473 0.29,-0.458C0.312,-0.442 0.328,-0.424 0.339,-0.405L0.339,-0.712C0.339,-0.724 0.345,-0.734 0.358,-0.741C0.371,-0.749 0.386,-0.752 0.405,-0.752C0.423,-0.752 0.438,-0.749 0.45,-0.741C0.462,-0.734 0.468,-0.724 0.468,-0.712L0.468,-0.042C0.468,-0.031 0.462,-0.022 0.45,-0.013C0.438,-0.004 0.423,-0 0.405,-0C0.389,-0 0.376,-0.004 0.364,-0.013C0.353,-0.022 0.347,-0.031 0.347,-0.042L0.347,-0.07C0.337,-0.049 0.319,-0.031 0.293,-0.015C0.268,0.001 0.239,0.009 0.208,0.009ZM0.249,-0.104C0.266,-0.104 0.281,-0.109 0.295,-0.118C0.308,-0.128 0.319,-0.139 0.327,-0.15C0.335,-0.162 0.339,-0.172 0.339,-0.178L0.339,-0.278C0.339,-0.297 0.334,-0.313 0.326,-0.326C0.317,-0.339 0.305,-0.35 0.292,-0.357C0.278,-0.364 0.264,-0.368 0.25,-0.368C0.234,-0.368 0.219,-0.363 0.205,-0.355C0.192,-0.346 0.181,-0.335 0.173,-0.321C0.166,-0.307 0.162,-0.293 0.162,-0.278L0.162,-0.196C0.162,-0.181 0.166,-0.166 0.173,-0.152C0.181,-0.138 0.192,-0.126 0.205,-0.117C0.218,-0.109 0.233,-0.104 0.249,-0.104Z" style="fill-rule:nonzero;"/>
                        </g>
                        <g transform="matrix(45.019506,0,0,45.019506,876.677703,122.118518)">
                            <path d="M0.263,0.009C0.223,0.009 0.187,-0 0.154,-0.019C0.121,-0.038 0.094,-0.064 0.075,-0.095C0.055,-0.126 0.045,-0.159 0.045,-0.194L0.045,-0.434C0.045,-0.444 0.052,-0.454 0.064,-0.462C0.077,-0.471 0.092,-0.475 0.11,-0.475C0.127,-0.475 0.142,-0.471 0.155,-0.462C0.168,-0.454 0.174,-0.444 0.174,-0.434L0.174,-0.194C0.174,-0.179 0.178,-0.165 0.186,-0.151C0.194,-0.137 0.205,-0.126 0.218,-0.117C0.231,-0.109 0.246,-0.104 0.262,-0.104C0.279,-0.104 0.293,-0.109 0.307,-0.117C0.32,-0.126 0.33,-0.137 0.338,-0.151C0.346,-0.165 0.35,-0.179 0.35,-0.194L0.35,-0.435C0.35,-0.446 0.356,-0.455 0.369,-0.463C0.382,-0.471 0.397,-0.475 0.414,-0.475C0.433,-0.475 0.449,-0.471 0.461,-0.463C0.473,-0.455 0.479,-0.446 0.479,-0.435L0.479,-0.194C0.479,-0.158 0.469,-0.125 0.449,-0.094C0.429,-0.063 0.403,-0.038 0.37,-0.019C0.338,-0 0.302,0.009 0.263,0.009Z" style="fill-rule:nonzero;"/>
                        </g>
                        <g transform="matrix(45.019506,0,0,45.019506,900.267924,122.118518)">
                        </g>
                        <g transform="matrix(45.019506,0,0,45.019506,909.271825,122.118518)">
                            <path d="M0.052,-0C0.039,-0 0.029,-0.003 0.022,-0.01C0.016,-0.017 0.013,-0.025 0.013,-0.036C0.013,-0.05 0.018,-0.065 0.027,-0.081L0.324,-0.617L0.071,-0.617C0.059,-0.617 0.049,-0.622 0.042,-0.634C0.034,-0.645 0.031,-0.659 0.031,-0.674C0.031,-0.688 0.034,-0.701 0.04,-0.713C0.047,-0.725 0.057,-0.731 0.071,-0.731L0.451,-0.731C0.464,-0.731 0.474,-0.728 0.48,-0.721C0.487,-0.715 0.49,-0.706 0.49,-0.696C0.49,-0.682 0.485,-0.666 0.475,-0.649L0.179,-0.114L0.467,-0.114C0.48,-0.114 0.49,-0.108 0.497,-0.096C0.504,-0.084 0.508,-0.071 0.508,-0.057C0.508,-0.044 0.504,-0.031 0.497,-0.018C0.49,-0.006 0.48,-0 0.467,-0L0.052,-0Z" style="fill-rule:nonzero;"/>
                        </g>
                        <g transform="matrix(45.019506,0,0,45.019506,932.681968,122.118518)">
                            <path d="M0.117,-0C0.103,-0 0.09,-0.003 0.078,-0.01C0.066,-0.017 0.06,-0.028 0.06,-0.042L0.06,-0.69C0.06,-0.703 0.066,-0.714 0.078,-0.721C0.09,-0.728 0.103,-0.731 0.117,-0.731L0.473,-0.731C0.488,-0.731 0.498,-0.725 0.504,-0.713C0.511,-0.701 0.514,-0.688 0.514,-0.675C0.514,-0.659 0.51,-0.646 0.504,-0.634C0.497,-0.622 0.487,-0.617 0.473,-0.617L0.19,-0.617L0.19,-0.417L0.342,-0.417C0.356,-0.417 0.366,-0.412 0.373,-0.401C0.379,-0.391 0.383,-0.379 0.383,-0.365C0.383,-0.354 0.38,-0.343 0.373,-0.332C0.367,-0.321 0.357,-0.315 0.342,-0.315L0.19,-0.315L0.19,-0.114L0.473,-0.114C0.487,-0.114 0.497,-0.109 0.504,-0.097C0.51,-0.086 0.514,-0.072 0.514,-0.056C0.514,-0.043 0.511,-0.03 0.504,-0.018C0.498,-0.006 0.488,-0 0.473,-0L0.117,-0Z" style="fill-rule:nonzero;"/>
                        </g>
                        <g transform="matrix(45.019506,0,0,45.019506,956.542306,122.118518)">
                            <path d="M0.461,0.005C0.452,0.005 0.444,0.002 0.435,-0.003C0.427,-0.008 0.421,-0.016 0.416,-0.026L0.274,-0.302L0.19,-0.302L0.19,-0.042C0.19,-0.028 0.183,-0.017 0.17,-0.01C0.156,-0.003 0.141,-0 0.125,-0C0.109,-0 0.094,-0.003 0.081,-0.01C0.067,-0.017 0.06,-0.028 0.06,-0.042L0.06,-0.691C0.06,-0.701 0.064,-0.711 0.072,-0.719C0.079,-0.727 0.089,-0.731 0.102,-0.731L0.3,-0.731C0.344,-0.731 0.384,-0.725 0.42,-0.712C0.456,-0.699 0.484,-0.678 0.505,-0.647C0.527,-0.617 0.537,-0.575 0.537,-0.522C0.537,-0.483 0.532,-0.451 0.52,-0.424C0.509,-0.397 0.493,-0.375 0.474,-0.359C0.454,-0.342 0.431,-0.33 0.406,-0.322L0.538,-0.079C0.539,-0.077 0.541,-0.074 0.541,-0.071C0.542,-0.068 0.542,-0.065 0.542,-0.063C0.542,-0.052 0.538,-0.041 0.53,-0.031C0.522,-0.02 0.511,-0.012 0.499,-0.005C0.487,0.001 0.474,0.005 0.461,0.005ZM0.19,-0.404L0.3,-0.404C0.333,-0.404 0.359,-0.412 0.378,-0.428C0.398,-0.444 0.407,-0.471 0.407,-0.51C0.407,-0.55 0.398,-0.578 0.378,-0.593C0.359,-0.609 0.333,-0.617 0.3,-0.617L0.19,-0.617L0.19,-0.404Z" style="fill-rule:nonzero;"/>
                        </g>
                        <g transform="matrix(45.019506,0,0,45.019506,982.113385,122.118518)">
                            <path d="M0.279,0.006C0.235,0.006 0.195,-0.001 0.16,-0.016C0.124,-0.031 0.096,-0.056 0.076,-0.089C0.055,-0.123 0.045,-0.168 0.045,-0.224L0.045,-0.502C0.045,-0.557 0.055,-0.602 0.076,-0.636C0.096,-0.669 0.124,-0.694 0.16,-0.709C0.195,-0.724 0.235,-0.731 0.279,-0.731C0.323,-0.731 0.363,-0.724 0.398,-0.709C0.434,-0.694 0.462,-0.669 0.483,-0.636C0.504,-0.602 0.514,-0.557 0.514,-0.502L0.514,-0.224C0.514,-0.168 0.504,-0.123 0.483,-0.089C0.462,-0.056 0.434,-0.031 0.398,-0.016C0.363,-0.001 0.323,0.006 0.279,0.006ZM0.279,-0.108C0.312,-0.108 0.337,-0.118 0.356,-0.136C0.375,-0.155 0.384,-0.184 0.384,-0.224L0.384,-0.502C0.384,-0.541 0.375,-0.57 0.356,-0.589C0.337,-0.607 0.312,-0.617 0.279,-0.617C0.246,-0.617 0.22,-0.607 0.202,-0.589C0.184,-0.57 0.175,-0.541 0.175,-0.502L0.175,-0.224C0.175,-0.184 0.184,-0.155 0.202,-0.136C0.221,-0.118 0.246,-0.108 0.279,-0.108ZM0.279,-0.315C0.265,-0.315 0.254,-0.32 0.246,-0.329C0.237,-0.337 0.233,-0.349 0.233,-0.362C0.233,-0.376 0.237,-0.387 0.246,-0.395C0.254,-0.404 0.265,-0.408 0.279,-0.408C0.294,-0.408 0.305,-0.404 0.313,-0.395C0.322,-0.387 0.326,-0.376 0.326,-0.362C0.326,-0.349 0.322,-0.337 0.313,-0.329C0.305,-0.32 0.294,-0.315 0.279,-0.315Z" style="fill-rule:nonzero;"/>
                        </g>
                        <g transform="matrix(45.019506,0,0,45.019506,1007.279289,122.118518)">
                            <path d="M0.165,-0C0.149,-0 0.134,-0.003 0.121,-0.01C0.107,-0.017 0.1,-0.028 0.1,-0.042L0.1,-0.575L0.068,-0.543C0.064,-0.54 0.06,-0.538 0.056,-0.536C0.052,-0.535 0.048,-0.534 0.045,-0.534C0.032,-0.534 0.022,-0.54 0.014,-0.551C0.006,-0.562 0.003,-0.573 0.003,-0.587C0.003,-0.596 0.005,-0.604 0.009,-0.613C0.013,-0.621 0.019,-0.628 0.027,-0.633L0.145,-0.723C0.149,-0.727 0.153,-0.729 0.158,-0.73C0.162,-0.732 0.167,-0.733 0.173,-0.733C0.186,-0.733 0.199,-0.729 0.212,-0.722C0.224,-0.714 0.23,-0.704 0.23,-0.691L0.23,-0.042C0.23,-0.028 0.224,-0.017 0.21,-0.01C0.196,-0.003 0.181,-0 0.165,-0Z" style="fill-rule:nonzero;"/>
                        </g>
                        <g transform="matrix(45.019506,0,0,45.019506,1020.199887,122.118518)">
                        </g>
                    </g>
                    <g transform="matrix(0.594114,0.02873,0.002562,0.542249,227.06462,36.211476)">
                        <path d="M413.924,546.986L416.676,548.161L407.605,564.481L404.854,563.306L413.924,546.986Z"/>
                    </g>
                </g>
            </g>
        </g>
    </g>
</svg>
