<?xml version="1.0" encoding="UTF-8" standalone="no"?>
<!DOCTYPE svg PUBLIC "-//W3C//DTD SVG 1.1//EN" "http://www.w3.org/Graphics/SVG/1.1/DTD/svg11.dtd">
<svg width="100%" height="100%" viewBox="0 0 211 31" version="1.1" xmlns="http://www.w3.org/2000/svg" xmlns:xlink="http://www.w3.org/1999/xlink" xml:space="preserve" xmlns:serif="http://www.serif.com/" style="fill-rule:evenodd;clip-rule:evenodd;stroke-linejoin:round;stroke-miterlimit:2;">
    <g transform="matrix(1,0,0,1,-336.492524,-258.33194)">
        <g transform="matrix(0.975023,0,0,1,6.818765,-0.748483)">
            <g transform="matrix(1.009216,0,0,0.162411,54.449282,256.515648)">
                <g transform="matrix(0.821825,0,0,4.979229,-96.347635,-405.395297)">
                    <g transform="matrix(50,0,0,50,512.469537,122.118518)">
                        <path d="M0.128,-0C0.111,-0 0.094,-0.004 0.08,-0.011C0.065,-0.018 0.058,-0.029 0.058,-0.044L0.058,-0.687C0.058,-0.702 0.064,-0.713 0.077,-0.72C0.09,-0.727 0.104,-0.731 0.119,-0.731L0.467,-0.731C0.483,-0.731 0.494,-0.725 0.5,-0.712C0.507,-0.699 0.511,-0.685 0.511,-0.67C0.511,-0.654 0.507,-0.639 0.5,-0.627C0.492,-0.614 0.481,-0.608 0.467,-0.608L0.198,-0.608L0.198,-0.421L0.35,-0.421C0.364,-0.421 0.375,-0.415 0.382,-0.404C0.39,-0.393 0.393,-0.38 0.393,-0.365C0.393,-0.353 0.39,-0.341 0.383,-0.329C0.377,-0.317 0.366,-0.311 0.35,-0.311L0.198,-0.311L0.198,-0.044C0.198,-0.029 0.191,-0.018 0.176,-0.011C0.161,-0.004 0.145,-0 0.128,-0Z" style="fill-rule:nonzero;"/>
                    </g>
                    <g transform="matrix(50,0,0,50,533.869537,122.118518)">
                        <path d="M0.276,0.009C0.228,0.009 0.186,0.001 0.149,-0.017C0.112,-0.034 0.083,-0.058 0.062,-0.09C0.041,-0.121 0.03,-0.157 0.03,-0.199L0.03,-0.278C0.03,-0.315 0.04,-0.349 0.06,-0.38C0.08,-0.41 0.107,-0.435 0.141,-0.454C0.175,-0.472 0.212,-0.481 0.253,-0.481C0.291,-0.481 0.326,-0.474 0.357,-0.458C0.389,-0.442 0.415,-0.42 0.434,-0.391C0.454,-0.363 0.463,-0.33 0.463,-0.293C0.463,-0.264 0.459,-0.243 0.449,-0.23C0.44,-0.217 0.428,-0.209 0.413,-0.206C0.398,-0.204 0.383,-0.202 0.368,-0.202L0.17,-0.202L0.17,-0.191C0.17,-0.163 0.18,-0.142 0.2,-0.125C0.221,-0.109 0.247,-0.1 0.28,-0.1C0.302,-0.1 0.32,-0.104 0.335,-0.11C0.349,-0.116 0.362,-0.123 0.373,-0.129C0.384,-0.135 0.394,-0.138 0.404,-0.138C0.415,-0.138 0.425,-0.134 0.432,-0.127C0.44,-0.12 0.446,-0.111 0.45,-0.102C0.454,-0.092 0.456,-0.084 0.456,-0.076C0.456,-0.065 0.449,-0.052 0.434,-0.039C0.419,-0.025 0.399,-0.014 0.372,-0.005C0.345,0.005 0.313,0.009 0.276,0.009ZM0.17,-0.282L0.307,-0.282C0.316,-0.282 0.323,-0.284 0.327,-0.288C0.331,-0.291 0.333,-0.298 0.333,-0.308C0.333,-0.323 0.329,-0.336 0.321,-0.346C0.314,-0.357 0.304,-0.365 0.291,-0.371C0.279,-0.377 0.266,-0.379 0.251,-0.379C0.237,-0.379 0.224,-0.377 0.211,-0.371C0.199,-0.366 0.189,-0.358 0.181,-0.347C0.173,-0.336 0.17,-0.324 0.17,-0.309L0.17,-0.282Z" style="fill-rule:nonzero;"/>
                    </g>
                    <g transform="matrix(50,0,0,50,558.319537,122.118518)">
                        <path d="M0.207,0.009C0.173,0.009 0.142,0.005 0.114,-0.003C0.086,-0.012 0.064,-0.023 0.048,-0.036C0.031,-0.05 0.023,-0.064 0.023,-0.079C0.023,-0.086 0.025,-0.095 0.029,-0.104C0.033,-0.114 0.039,-0.122 0.045,-0.13C0.052,-0.137 0.06,-0.14 0.069,-0.14C0.079,-0.14 0.09,-0.137 0.1,-0.129C0.11,-0.121 0.123,-0.114 0.139,-0.106C0.155,-0.099 0.177,-0.095 0.204,-0.095C0.233,-0.095 0.251,-0.1 0.26,-0.108C0.269,-0.117 0.273,-0.126 0.273,-0.135C0.273,-0.148 0.267,-0.158 0.256,-0.166C0.244,-0.173 0.23,-0.179 0.212,-0.184C0.194,-0.189 0.175,-0.194 0.155,-0.199C0.135,-0.205 0.116,-0.213 0.098,-0.223C0.08,-0.232 0.065,-0.246 0.054,-0.263C0.042,-0.28 0.037,-0.303 0.037,-0.331C0.037,-0.355 0.042,-0.378 0.054,-0.401C0.065,-0.425 0.084,-0.444 0.111,-0.459C0.138,-0.474 0.174,-0.481 0.219,-0.481C0.248,-0.481 0.274,-0.479 0.299,-0.473C0.324,-0.467 0.344,-0.459 0.36,-0.449C0.375,-0.438 0.383,-0.426 0.383,-0.413C0.383,-0.407 0.381,-0.399 0.377,-0.388C0.373,-0.378 0.368,-0.368 0.36,-0.36C0.352,-0.351 0.343,-0.347 0.332,-0.347C0.324,-0.347 0.315,-0.35 0.305,-0.355C0.294,-0.36 0.282,-0.365 0.269,-0.369C0.255,-0.374 0.24,-0.377 0.221,-0.377C0.206,-0.377 0.194,-0.375 0.184,-0.371C0.175,-0.366 0.168,-0.361 0.164,-0.355C0.159,-0.349 0.157,-0.343 0.157,-0.337C0.157,-0.326 0.163,-0.317 0.174,-0.311C0.185,-0.306 0.2,-0.3 0.218,-0.296C0.237,-0.291 0.256,-0.286 0.276,-0.28C0.296,-0.274 0.315,-0.266 0.334,-0.255C0.352,-0.245 0.366,-0.23 0.378,-0.212C0.389,-0.193 0.395,-0.17 0.395,-0.14C0.395,-0.095 0.379,-0.058 0.347,-0.031C0.315,-0.004 0.268,0.009 0.207,0.009Z" style="fill-rule:nonzero;"/>
                    </g>
                    <g transform="matrix(50,0,0,50,579.419537,122.118518)">
                        <path d="M0.235,-0C0.174,-0 0.127,-0.013 0.095,-0.04C0.062,-0.066 0.046,-0.108 0.046,-0.165L0.046,-0.642C0.046,-0.655 0.053,-0.666 0.068,-0.674C0.083,-0.682 0.099,-0.686 0.115,-0.686C0.133,-0.686 0.149,-0.682 0.163,-0.674C0.178,-0.666 0.185,-0.655 0.185,-0.642L0.185,-0.475L0.301,-0.475C0.313,-0.475 0.322,-0.47 0.328,-0.46C0.334,-0.449 0.337,-0.438 0.337,-0.425C0.337,-0.413 0.334,-0.401 0.328,-0.391C0.322,-0.38 0.313,-0.375 0.301,-0.375L0.185,-0.375L0.185,-0.165C0.185,-0.147 0.189,-0.135 0.196,-0.128C0.204,-0.121 0.217,-0.118 0.235,-0.118L0.276,-0.118C0.296,-0.118 0.311,-0.112 0.321,-0.099C0.331,-0.087 0.336,-0.074 0.336,-0.059C0.336,-0.044 0.331,-0.03 0.321,-0.018C0.311,-0.006 0.296,-0 0.276,-0L0.235,-0Z" style="fill-rule:nonzero;"/>
                    </g>
                    <g transform="matrix(50,0,0,50,597.019537,122.118518)">
                        <path d="M0.117,-0.576C0.096,-0.576 0.079,-0.583 0.064,-0.596C0.049,-0.61 0.042,-0.625 0.042,-0.643C0.042,-0.661 0.049,-0.676 0.064,-0.689C0.079,-0.702 0.096,-0.708 0.117,-0.708C0.138,-0.708 0.156,-0.702 0.17,-0.689C0.185,-0.676 0.192,-0.661 0.192,-0.643C0.192,-0.625 0.185,-0.61 0.17,-0.596C0.156,-0.583 0.138,-0.576 0.117,-0.576ZM0.117,-0C0.097,-0 0.08,-0.005 0.067,-0.014C0.054,-0.023 0.048,-0.033 0.048,-0.044L0.048,-0.432C0.048,-0.445 0.054,-0.456 0.067,-0.464C0.08,-0.472 0.097,-0.475 0.117,-0.475C0.136,-0.475 0.153,-0.472 0.167,-0.464C0.181,-0.456 0.187,-0.445 0.187,-0.432L0.187,-0.044C0.187,-0.033 0.181,-0.023 0.167,-0.014C0.153,-0.005 0.136,-0 0.117,-0Z" style="fill-rule:nonzero;"/>
                    </g>
                    <g transform="matrix(50,0,0,50,608.669537,122.118518)">
                        <path d="M0.265,-0C0.248,-0 0.232,-0.004 0.217,-0.011C0.203,-0.018 0.195,-0.029 0.195,-0.044L0.195,-0.605L0.052,-0.605C0.039,-0.605 0.028,-0.611 0.02,-0.624C0.013,-0.637 0.009,-0.652 0.009,-0.669C0.009,-0.684 0.012,-0.698 0.019,-0.711C0.026,-0.724 0.037,-0.731 0.052,-0.731L0.479,-0.731C0.494,-0.731 0.505,-0.724 0.512,-0.711C0.519,-0.698 0.522,-0.684 0.522,-0.669C0.522,-0.652 0.518,-0.637 0.511,-0.624C0.504,-0.611 0.493,-0.605 0.479,-0.605L0.336,-0.605L0.336,-0.044C0.336,-0.029 0.328,-0.018 0.314,-0.011C0.299,-0.004 0.283,-0 0.265,-0Z" style="fill-rule:nonzero;"/>
                    </g>
                    <g transform="matrix(50,0,0,50,630.519537,122.118518)">
                        <path d="M0.116,-0C0.097,-0 0.08,-0.005 0.067,-0.014C0.054,-0.023 0.048,-0.033 0.048,-0.044L0.048,-0.432C0.048,-0.445 0.054,-0.456 0.067,-0.464C0.08,-0.472 0.097,-0.475 0.116,-0.475C0.134,-0.475 0.149,-0.472 0.161,-0.464C0.173,-0.456 0.179,-0.445 0.179,-0.432L0.179,-0.393C0.186,-0.408 0.195,-0.422 0.208,-0.435C0.22,-0.448 0.234,-0.46 0.25,-0.468C0.266,-0.477 0.283,-0.481 0.3,-0.481L0.33,-0.481C0.344,-0.481 0.355,-0.475 0.365,-0.463C0.375,-0.451 0.38,-0.437 0.38,-0.421C0.38,-0.404 0.375,-0.39 0.365,-0.378C0.355,-0.365 0.344,-0.359 0.33,-0.359L0.3,-0.359C0.282,-0.359 0.264,-0.353 0.246,-0.341C0.229,-0.329 0.215,-0.312 0.204,-0.29C0.193,-0.268 0.187,-0.242 0.187,-0.211L0.187,-0.044C0.187,-0.033 0.181,-0.023 0.167,-0.014C0.153,-0.005 0.136,-0 0.116,-0Z" style="fill-rule:nonzero;"/>
                    </g>
                    <g transform="matrix(50,0,0,50,649.469537,122.118518)">
                        <path d="M0.15,0.009C0.114,0.009 0.084,-0.001 0.059,-0.023C0.033,-0.045 0.02,-0.078 0.02,-0.123C0.02,-0.162 0.03,-0.192 0.05,-0.214C0.07,-0.236 0.098,-0.251 0.133,-0.259C0.168,-0.268 0.208,-0.272 0.254,-0.272L0.293,-0.272L0.293,-0.284C0.293,-0.297 0.29,-0.31 0.285,-0.323C0.28,-0.336 0.271,-0.347 0.259,-0.356C0.248,-0.365 0.231,-0.369 0.21,-0.369C0.184,-0.369 0.164,-0.366 0.15,-0.361C0.137,-0.356 0.127,-0.351 0.119,-0.345C0.112,-0.34 0.104,-0.337 0.095,-0.337C0.08,-0.337 0.068,-0.344 0.06,-0.36C0.052,-0.375 0.047,-0.39 0.047,-0.406C0.047,-0.421 0.056,-0.434 0.074,-0.445C0.091,-0.457 0.113,-0.466 0.138,-0.472C0.163,-0.478 0.188,-0.481 0.212,-0.481C0.265,-0.481 0.308,-0.472 0.34,-0.454C0.372,-0.435 0.395,-0.411 0.41,-0.381C0.425,-0.352 0.432,-0.32 0.432,-0.286L0.432,-0.044C0.432,-0.032 0.426,-0.021 0.413,-0.013C0.4,-0.004 0.384,-0 0.364,-0C0.346,-0 0.332,-0.004 0.319,-0.013C0.307,-0.021 0.301,-0.032 0.301,-0.044L0.301,-0.07C0.284,-0.05 0.263,-0.031 0.238,-0.015C0.214,0.001 0.185,0.009 0.15,0.009ZM0.208,-0.093C0.22,-0.093 0.233,-0.098 0.246,-0.107C0.259,-0.116 0.27,-0.127 0.279,-0.142C0.288,-0.156 0.293,-0.171 0.293,-0.188L0.293,-0.202L0.282,-0.202C0.261,-0.202 0.242,-0.201 0.223,-0.198C0.204,-0.196 0.189,-0.19 0.178,-0.182C0.166,-0.173 0.16,-0.16 0.16,-0.143C0.16,-0.125 0.165,-0.113 0.174,-0.105C0.183,-0.097 0.194,-0.093 0.208,-0.093Z" style="fill-rule:nonzero;"/>
                    </g>
                    <g transform="matrix(50,0,0,50,673.269537,122.118518)">
                        <path d="M0.252,0.009C0.201,0.009 0.159,0 0.126,-0.018C0.094,-0.036 0.07,-0.061 0.054,-0.093C0.039,-0.124 0.031,-0.159 0.031,-0.199L0.031,-0.273C0.031,-0.313 0.039,-0.348 0.054,-0.379C0.069,-0.411 0.093,-0.436 0.126,-0.454C0.158,-0.472 0.2,-0.481 0.251,-0.481C0.283,-0.481 0.311,-0.478 0.335,-0.47C0.36,-0.463 0.379,-0.453 0.394,-0.44C0.408,-0.428 0.415,-0.415 0.415,-0.402C0.415,-0.393 0.412,-0.384 0.408,-0.373C0.403,-0.362 0.397,-0.353 0.389,-0.345C0.381,-0.337 0.371,-0.333 0.36,-0.333C0.353,-0.333 0.345,-0.335 0.337,-0.34C0.33,-0.344 0.32,-0.349 0.308,-0.353C0.296,-0.357 0.281,-0.359 0.262,-0.359C0.23,-0.359 0.206,-0.352 0.192,-0.337C0.178,-0.322 0.171,-0.301 0.171,-0.273L0.171,-0.199C0.171,-0.171 0.178,-0.15 0.192,-0.135C0.206,-0.12 0.23,-0.113 0.263,-0.113C0.282,-0.113 0.298,-0.115 0.309,-0.12C0.32,-0.125 0.329,-0.13 0.337,-0.134C0.345,-0.139 0.353,-0.141 0.361,-0.141C0.374,-0.141 0.385,-0.138 0.394,-0.131C0.403,-0.123 0.409,-0.115 0.414,-0.104C0.418,-0.094 0.421,-0.084 0.421,-0.075C0.421,-0.061 0.413,-0.048 0.399,-0.035C0.384,-0.022 0.364,-0.011 0.339,-0.003C0.313,0.005 0.285,0.009 0.252,0.009Z" style="fill-rule:nonzero;"/>
                    </g>
                    <g transform="matrix(50,0,0,50,695.119537,122.118518)">
                        <path d="M0.117,-0C0.098,-0 0.081,-0.005 0.068,-0.014C0.055,-0.023 0.049,-0.033 0.049,-0.044L0.049,-0.708C0.049,-0.72 0.055,-0.731 0.068,-0.739C0.081,-0.747 0.098,-0.751 0.117,-0.751C0.137,-0.751 0.154,-0.747 0.168,-0.739C0.182,-0.731 0.188,-0.72 0.188,-0.708L0.188,-0.299L0.368,-0.47C0.375,-0.477 0.385,-0.481 0.395,-0.481C0.406,-0.481 0.416,-0.477 0.426,-0.471C0.437,-0.464 0.446,-0.455 0.453,-0.445C0.46,-0.435 0.463,-0.425 0.463,-0.414C0.463,-0.41 0.462,-0.405 0.46,-0.401C0.458,-0.397 0.456,-0.393 0.452,-0.389L0.339,-0.285L0.482,-0.083C0.487,-0.075 0.489,-0.068 0.489,-0.061C0.489,-0.05 0.485,-0.039 0.476,-0.028C0.468,-0.017 0.457,-0.009 0.445,-0.002C0.433,0.005 0.421,0.009 0.41,0.009C0.395,0.009 0.384,0.003 0.376,-0.009L0.246,-0.2L0.188,-0.147L0.188,-0.044C0.188,-0.033 0.182,-0.023 0.168,-0.014C0.154,-0.005 0.137,-0 0.117,-0Z" style="fill-rule:nonzero;"/>
                    </g>
                </g>
                <g transform="matrix(0.130963,-0,-0,0.793473,262.993109,-86.557679)">
                    <g transform="matrix(1,0,0,1,-37.29935,15.474897)">
                        <path d="M324.599,120.858L324.599,270.055L175.401,270.055L175.401,232.184C175.401,170.7 225.244,120.858 286.727,120.858L324.599,120.858Z"/>
                    </g>
                    <g transform="matrix(4.979384,0,0,9.958769,-650.709397,-1846.938935)">
                        <path d="M188.378,206.639L188.378,221.621L173.397,221.621L173.397,210.382C173.397,208.315 176.749,206.639 180.883,206.639L188.378,206.639Z" style="fill:rgb(59,214,238);"/>
                    </g>
                    <g transform="matrix(4.979384,0,0,14.938153,-576.110696,-2950.472893)">
                        <path d="M183.358,206.639C186.131,206.639 188.378,207.388 188.378,208.313L188.378,219.947C188.378,220.871 186.131,221.621 183.358,221.621L173.397,221.621L173.397,206.639L183.358,206.639Z" style="fill:rgb(78,93,255);"/>
                    </g>
                    <g transform="matrix(4.979384,0,0,4.979384,-725.308097,-743.404977)">
                        <path d="M188.378,206.639L188.378,221.621L178.418,221.621C175.645,221.621 173.397,219.373 173.397,216.6L173.397,206.639L188.378,206.639Z" style="fill:rgb(253,56,121);"/>
                    </g>
                </g>
            </g>
        </g>
    </g>
</svg>
