<?xml version="1.0" encoding="UTF-8" standalone="no"?>
<!DOCTYPE svg PUBLIC "-//W3C//DTD SVG 1.1//EN" "http://www.w3.org/Graphics/SVG/1.1/DTD/svg11.dtd">
<svg width="100%" height="100%" viewBox="0 0 29 29" version="1.1" xmlns="http://www.w3.org/2000/svg" xmlns:xlink="http://www.w3.org/1999/xlink" xml:space="preserve" xmlns:serif="http://www.serif.com/" style="fill-rule:evenodd;clip-rule:evenodd;stroke-linejoin:round;stroke-miterlimit:2;">
    <g transform="matrix(1,0,0,1,-336.492524,-259.278304)">
        <g transform="matrix(0.984008,0,0,0.162411,59.908059,255.767165)">
            <g transform="matrix(0.130963,-0,-0,0.793473,262.993109,-86.557679)">
                <g transform="matrix(1,0,0,1,-37.29935,15.474897)">
                    <path d="M324.599,120.858L324.599,270.055L175.401,270.055L175.401,232.184C175.401,170.7 225.244,120.858 286.727,120.858L324.599,120.858Z"/>
                </g>
                <g transform="matrix(4.979384,0,0,9.958769,-650.709397,-1846.938935)">
                    <path d="M188.378,206.639L188.378,221.621L173.397,221.621L173.397,210.382C173.397,208.315 176.749,206.639 180.883,206.639L188.378,206.639Z" style="fill:rgb(59,214,238);"/>
                </g>
                <g transform="matrix(4.979384,0,0,14.938153,-576.110696,-2950.472893)">
                    <path d="M183.358,206.639C186.131,206.639 188.378,207.388 188.378,208.313L188.378,219.947C188.378,220.871 186.131,221.621 183.358,221.621L173.397,221.621L173.397,206.639L183.358,206.639Z" style="fill:rgb(78,93,255);"/>
                </g>
                <g transform="matrix(4.979384,0,0,4.979384,-725.308097,-743.404977)">
                    <path d="M188.378,206.639L188.378,221.621L178.418,221.621C175.645,221.621 173.397,219.373 173.397,216.6L173.397,206.639L188.378,206.639Z" style="fill:rgb(253,56,121);"/>
                </g>
            </g>
        </g>
    </g>
</svg>
