<?xml version="1.0" encoding="UTF-8" standalone="no"?>
<!DOCTYPE svg PUBLIC "-//W3C//DTD SVG 1.1//EN" "http://www.w3.org/Graphics/SVG/1.1/DTD/svg11.dtd">
<svg width="100%" height="100%" viewBox="0 0 280 201" version="1.1" xmlns="http://www.w3.org/2000/svg" xmlns:xlink="http://www.w3.org/1999/xlink" xml:space="preserve" xmlns:serif="http://www.serif.com/" style="fill-rule:evenodd;clip-rule:evenodd;stroke-linejoin:round;stroke-miterlimit:2;">
    <g transform="matrix(1,0,0,1,-1328.083302,-1091.734143)">
        <g transform="matrix(0.975023,0,0,1,1015.024626,661.516455)">
            <g transform="matrix(21.475611,0,0,21.475611,-9593.441203,-9245.676312)">
                <g transform="matrix(0.372903,0,0,1,-84.277436,-798.470808)">
                    <path d="M1466.322,1253.693L1496.763,1253.693" style="fill:none;"/>
                </g>
                <g transform="matrix(0.372903,0,0,1,-84.277436,-798.470808)">
                    <path d="M1466.322,1254.526C1465.057,1254.526 1464.03,1254.153 1464.03,1253.693C1464.03,1253.233 1465.057,1252.859 1466.322,1252.859L1496.763,1252.859C1498.028,1252.859 1499.055,1253.233 1499.055,1253.693C1499.055,1254.153 1498.028,1254.526 1496.763,1254.526L1466.322,1254.526Z"/>
                </g>
                <g transform="matrix(0.130509,0.127249,-0.725221,0.707107,1188.072213,-621.735045)">
                    <path d="M1466.322,1253.693L1496.763,1253.693" style="fill:none;"/>
                </g>
                <g transform="matrix(0.130509,0.127249,-0.725221,0.707107,1188.072213,-621.735045)">
                    <path d="M1466.322,1254.488C1463.881,1254.488 1461.9,1254.132 1461.9,1253.693C1461.9,1253.254 1463.881,1252.897 1466.322,1252.897L1496.763,1252.897C1499.204,1252.897 1501.185,1253.254 1501.185,1253.693C1501.185,1254.132 1499.204,1254.488 1496.763,1254.488L1466.322,1254.488Z"/>
                </g>
                <g transform="matrix(0.130509,-0.127249,-0.725221,-0.707107,1188.072213,1532.178911)">
                    <path d="M1466.322,1253.693L1496.763,1253.693" style="fill:none;"/>
                </g>
                <g transform="matrix(0.130509,-0.127249,-0.725221,-0.707107,1188.072213,1532.178911)">
                    <path d="M1466.322,1252.897C1463.881,1252.897 1461.9,1253.254 1461.9,1253.693C1461.9,1254.132 1463.881,1254.488 1466.322,1254.488L1496.763,1254.488C1499.204,1254.488 1501.185,1254.132 1501.185,1253.693C1501.185,1253.254 1499.204,1252.897 1496.763,1252.897L1466.322,1252.897Z"/>
                </g>
            </g>
        </g>
    </g>
</svg>
