<?xml version="1.0" encoding="UTF-8" standalone="no"?>
<!DOCTYPE svg PUBLIC "-//W3C//DTD SVG 1.1//EN" "http://www.w3.org/Graphics/SVG/1.1/DTD/svg11.dtd">
<svg width="100%" height="100%" viewBox="0 0 46 46" version="1.1" xmlns="http://www.w3.org/2000/svg" xmlns:xlink="http://www.w3.org/1999/xlink" xml:space="preserve" xmlns:serif="http://www.serif.com/" style="fill-rule:evenodd;clip-rule:evenodd;stroke-linecap:round;stroke-linejoin:round;stroke-miterlimit:1.5;">
    <g transform="matrix(1,0,0,1,-783.885271,-441.952085)">
        <g transform="matrix(0.975023,0,0,1,363.133264,-0.748483)">
            <g transform="matrix(0,-1.139494,1.168685,0,-93.158469,1462.789343)">
                <path d="M887.687,453.345L887.687,476.659C887.687,479.08 885.72,481.047 883.299,481.047L859.985,481.047C857.563,481.047 855.597,479.08 855.597,476.659L855.597,453.345C855.597,450.923 857.563,448.957 859.985,448.957L883.299,448.957C885.72,448.957 887.687,450.923 887.687,453.345ZM884.03,453.345C884.03,452.941 883.702,452.613 883.299,452.613L859.985,452.613C859.581,452.613 859.253,452.941 859.253,453.345L859.253,476.659C859.253,477.062 859.581,477.39 859.985,477.39L883.299,477.39C883.702,477.39 884.03,477.062 884.03,476.659L884.03,453.345Z"/>
            </g>
            <g transform="matrix(1,0,0,1,1.760975,6.370381)">
                <g transform="matrix(0,-1.139494,1.168685,0,-86.124885,1447.844066)">
                    <path d="M887.687,453.345L887.687,476.659C887.687,479.08 885.72,481.047 883.299,481.047L859.985,481.047C857.563,481.047 855.597,479.08 855.597,476.659L855.597,453.345C855.597,450.923 857.563,448.957 859.985,448.957L883.299,448.957C885.72,448.957 887.687,450.923 887.687,453.345Z" style="fill:rgb(78,93,255);"/>
                </g>
                <g transform="matrix(-0,1.497387,-1.535746,-0,1111.537091,-704.024287)">
                    <path d="M773.773,419.513C773.773,419.513 775.98,422.392 775.98,425.996C775.98,429.6 773.773,432.479 773.773,432.479" style="fill:none;stroke:black;stroke-width:2.78px;"/>
                </g>
            </g>
        </g>
    </g>
</svg>
