<?xml version="1.0" encoding="UTF-8" standalone="no"?>
<!DOCTYPE svg PUBLIC "-//W3C//DTD SVG 1.1//EN" "http://www.w3.org/Graphics/SVG/1.1/DTD/svg11.dtd">
<svg width="100%" height="100%" viewBox="0 0 48 48" version="1.1" xmlns="http://www.w3.org/2000/svg" xmlns:xlink="http://www.w3.org/1999/xlink" xml:space="preserve" xmlns:serif="http://www.serif.com/" style="fill-rule:evenodd;clip-rule:evenodd;stroke-linecap:round;stroke-linejoin:round;stroke-miterlimit:1.5;">
    <g transform="matrix(1,0,0,1,-860.234354,-439.756461)">
        <g transform="matrix(0.975023,0,0,1,363.133264,-0.748483)">
            <g transform="matrix(0.826385,-0.805744,0.826385,0.805744,-570.353153,791.936958)">
                <path d="M887.687,453.345L887.687,476.659C887.687,479.08 885.72,481.047 883.299,481.047L859.985,481.047C857.563,481.047 855.597,479.08 855.597,476.659L855.597,453.345C855.597,450.923 857.563,448.957 859.985,448.957L883.299,448.957C885.72,448.957 887.687,450.923 887.687,453.345Z" style="fill:rgb(59,214,238);"/>
                <clipPath id="_clip1">
                    <path d="M887.687,453.345L887.687,476.659C887.687,479.08 885.72,481.047 883.299,481.047L859.985,481.047C857.563,481.047 855.597,479.08 855.597,476.659L855.597,453.345C855.597,450.923 857.563,448.957 859.985,448.957L883.299,448.957C885.72,448.957 887.687,450.923 887.687,453.345Z"/>
                </clipPath>
                <g clip-path="url(#_clip1)">
                    <path d="M871.471,471.796C873.738,476.754 872.832,482.812 868.753,486.891C863.51,492.135 854.995,492.135 849.752,486.891C844.508,481.648 844.508,473.134 849.752,467.89C853.831,463.811 859.889,462.905 864.847,465.172C864.579,462.939 865.302,460.609 867.014,458.897C869.975,455.936 874.784,455.936 877.746,458.897C880.708,461.859 880.708,466.668 877.746,469.629C876.034,471.342 873.704,472.064 871.471,471.796Z" style="fill:none;stroke:black;stroke-width:3.66px;"/>
                </g>
            </g>
        </g>
    </g>
</svg>
